# xmcd
#
# Track frame offsets: 
#        150
#        14017
#        28863
#        43694
#        59074
#        71066
#        83395
#        105285
#        125242
#        143366
#        161422
#        177070
#
# Disc length: 2591 seconds
#
# Revision: 0
# Processed by: cddbd v1.5.2PL0 Copyright (c) Steve Scherf et al.
# Submitted via: ExactAudioCopy v1.3
#
DISCID=9c0a1d0c
DTITLE=Fried Okra Band - There's a World Outside My Door
DYEAR=2013
DGENRE=Blues
TTITLE0=Chicago Stage
TTITLE1=I'm Going Down
TTITLE2=One String Love
TTITLE3=I Tried
TTITLE4=Fake Rag okra
TTITLE5=Unpack
TTITLE6=Hey a Da Hoh
TTITLE7=Followed My Baby
TTITLE8=Shopkeeper
TTITLE9=Bo Diddley Baby
TTITLE10=Holler For Help
TTITLE11=Copenhagen Coppola
EXTD=
EXTT0=
EXTT1=
EXTT2=
EXTT3=
EXTT4=
EXTT5=
EXTT6=
EXTT7=
EXTT8=
EXTT9=
EXTT10=
EXTT11=
PLAYORDER=
